<svg xmlns="http://www.w3.org/2000/svg" xmlns:xlink="http://www.w3.org/1999/xlink" width="500" zoomAndPan="magnify" viewBox="0 0 375 374.999991" height="500" preserveAspectRatio="xMidYMid meet" version="1.0"><defs><clipPath id="339cfe49da"><path d="M 35.214844 37.5 L 339.714844 37.5 L 339.714844 337 L 35.214844 337 Z M 35.214844 37.5 " clip-rule="nonzero"/></clipPath></defs><g clip-path="url(#339cfe49da)"><path fill="#ffffff" d="M 160.910156 38.261719 C 139.371094 41.371094 120.339844 57.25 113.691406 77.660156 C 111.441406 84.574219 110.738281 89.695312 110.515625 100.84375 L 110.316406 110.683594 L 73.128906 110.851562 L 35.9375 111.023438 L 35.9375 166.773438 L 110.726562 166.773438 L 110.726562 217.933594 L 73.496094 218.101562 L 36.265625 218.273438 L 36.097656 277.148438 L 35.929688 336.027344 L 39.707031 336.074219 C 67.1875 336.398438 105.175781 336.484375 107.609375 336.226562 L 110.726562 335.898438 L 110.726562 218.605469 L 189.613281 218.4375 L 268.5 218.273438 L 268.84375 166.773438 L 110.726562 166.773438 L 110.726562 111.667969 L 189.941406 111.660156 C 239.488281 111.660156 271.367188 111.40625 275.058594 110.988281 C 286.113281 109.734375 297.609375 105.472656 306.957031 99.167969 C 311.988281 95.773438 319.636719 88.527344 323.882812 83.128906 C 332.769531 71.828125 338.730469 56.410156 339.160156 43.632812 L 339.351562 37.863281 L 252.097656 37.78125 C 204.109375 37.734375 163.078125 37.949219 160.910156 38.261719 " fill-opacity="1" fill-rule="evenodd"/></g></svg>